<?xml version="1.0" encoding="UTF-8"?>
<svg id="Camada_1" xmlns="http://www.w3.org/2000/svg" version="1.1" viewBox="0 0 262.05 299.04">
  <!-- Generator: Adobe Illustrator 29.5.1, SVG Export Plug-In . SVG Version: 2.1.0 Build 141)  -->
  <defs>
    <style>
      .st0 {
        stroke: #339072;
      }

      .st0, .st1, .st2, .st3, .st4, .st5, .st6 {
        fill: none;
        stroke-width: 2px;
      }

      .st1 {
        stroke: #164335;
      }

      .st7 {
        fill: #f97d4c;
      }

      .st2 {
        stroke: #1d4e3d;
      }

      .st3 {
        stroke: #3ca975;
      }

      .st8 {
        fill: #3db76f;
      }

      .st9 {
        fill: #3a9b7a;
      }

      .st10 {
        fill: #2c8569;
      }

      .st4 {
        stroke: #359e6c;
      }

      .st5 {
        stroke: #1f5c38;
      }

      .st6 {
        stroke: #7d3f26;
      }
    </style>
  </defs>
  <g>
    <path class="st5" d="M111.59,73.48c2.33.64,4.65.97,6.97.98,57.05.47,90.55.66,100.5.58,8.84-.07,16.13-3.14,21.87-9.23,6.63-7.02,10.75-15.81,9.59-25.61-1.46-12.24-7.81-21.04-19.05-26.41-4.21-2.01-8.81-3-13.79-2.97-30.53.19-61.1.24-91.69.17" vector-effect="non-scaling-stroke"/>
    <path class="st2" d="M125.99,10.99c-4.71-.19-9.43-.22-14.18-.08-17.91.55-31.47,17.44-28.79,35.05,1.15,7.59,4.56,13.94,10.22,19.05,5.63,5.07,11.74,7.9,18.35,8.47" vector-effect="non-scaling-stroke"/>
    <path class="st3" d="M125.99,10.99c1.23.95,3.39,2.12,6.48,3.51,4.86,2.18,8.06,7.6,10.47,13.05,6.24,14.13,2.14,29.63-9.24,39.81-3.55,3.18-7.61,4.79-12.18,4.82-3.78.03-7.09.46-9.93,1.3" vector-effect="non-scaling-stroke"/>
    <path class="st6" d="M40.65,84.18c-16.89.62-30.07,15.13-29.43,32.42.63,17.29,14.84,30.8,31.73,30.18h0c16.89-.62,30.07-15.13,29.43-32.42-.63-17.29-14.84-30.8-31.73-30.18h0" vector-effect="non-scaling-stroke"/>
    <path class="st6" d="M250.75,181.98c0-17.05-13.82-30.87-30.87-30.87s-30.87,13.82-30.87,30.87,13.82,30.87,30.87,30.87,30.87-13.82,30.87-30.87" vector-effect="non-scaling-stroke"/>
    <path class="st1" d="M55.65,286.09c4.23.58,8.12.85,11.66.81,22.75-.25,45.52-.18,68.33.21" vector-effect="non-scaling-stroke"/>
    <path class="st2" d="M135.64,287.11c4.59.24,8.06.17,10.4-.2,10.4-1.67,18.27-6.54,23.62-14.61,6.42-9.69,6.66-22.02,1.22-32.15-6.33-11.77-16.26-17.57-29.8-17.39-4.87.06-9.29.22-13.26.47" vector-effect="non-scaling-stroke"/>
    <path class="st1" d="M127.82,223.23c-19.86-.28-39.28-.32-58.26-.13-4.45.04-8.69.23-12.73.58" vector-effect="non-scaling-stroke"/>
    <path class="st5" d="M56.83,223.68c-6.76-.99-11.65-1.39-14.66-1.21-11.96.71-20.81,6.02-26.55,15.95-6.93,11.99-6.18,23.61,2.25,34.86,7.44,9.93,19.33,14.98,32.06,13.52,2.09-.24,3.99-.48,5.72-.71" vector-effect="non-scaling-stroke"/>
    <path class="st4" d="M56.83,223.68c2.99,2.17,5.92,5.05,8.81,8.66,6.15,7.67,8.92,16.38,8.31,26.12-.17,2.69-.65,5.08-1.46,7.16-3.21,8.26-8.82,15.08-16.84,20.47" vector-effect="non-scaling-stroke"/>
    <path class="st0" d="M135.64,287.11c-15.43-5.94-25.97-16.43-25.21-34.01.37-8.66,3.49-15.73,9.34-21.21,3.77-3.54,6.46-6.43,8.05-8.66" vector-effect="non-scaling-stroke"/>
  </g>
  <g>
    <path class="st8" d="M111.59,73.48c2.84-.84,6.15-1.27,9.93-1.3,4.57-.03,8.63-1.64,12.18-4.82,11.38-10.18,15.48-25.68,9.24-39.81-2.41-5.45-5.61-10.87-10.47-13.05-3.09-1.39-5.25-2.56-6.48-3.51,30.59.07,61.16.02,91.69-.17,4.98-.03,9.58.96,13.79,2.97,11.24,5.37,17.59,14.17,19.05,26.41,1.16,9.8-2.96,18.59-9.59,25.61-5.74,6.09-13.03,9.16-21.87,9.23-9.95.08-43.45-.11-100.5-.58-2.32-.01-4.64-.34-6.97-.98Z"/>
    <path class="st8" d="M56.83,223.68c2.99,2.17,5.92,5.05,8.81,8.66,6.15,7.67,8.92,16.38,8.31,26.12-.17,2.69-.65,5.08-1.46,7.16-3.21,8.26-8.82,15.08-16.84,20.47-1.73.23-3.63.47-5.72.71-12.73,1.46-24.62-3.59-32.06-13.52-8.43-11.25-9.18-22.87-2.25-34.86,5.74-9.93,14.59-15.24,26.55-15.95,3.01-.18,7.9.22,14.66,1.21Z"/>
  </g>
  <path d="M80.83,107.43c-.26,1.21.3,2.44,1.37,3.04,1.87,1.05,3.89,1.81,6.06,2.26,20.45,4.28,33.61,7.07,39.48,8.36,14.81,3.26,42.89,9.5,84.24,18.72,2.83.63,6.74,1.37,11.71,2.21,18.19,3.08,31.47,14.62,34.87,32.5,4.05,21.26-8.74,40.59-29.09,47.05-3.96,1.26-8.25,2.24-12.88,2.93-3.62.55-7.31,1.94-10.88,4.05-6.43,3.81-11.17,6.66-14.24,8.55-2.95,1.81-6.83,4.5-7.52,7.54-.12.52-.13,1.41-.03,2.68,1.07,13.38-2.43,24.71-10.49,33.99-8.15,9.38-18.87,14.07-32.16,14.06-33.59-.01-63.78.06-90.59.21-7.34.04-12.54-.29-15.6-.99-14.44-3.3-25.55-13.2-30.3-27.08-6.19-18.14.98-37.36,17.04-47.55,5.99-3.79,12.98-5.69,20.99-5.69,58.26.01,88.66.03,91.2.06,6.17.05,9.36.08,9.59.09,6.47.26,11.06.28,16.94-2.26,5.98-2.59,11.36-5.74,16.13-9.45,3.07-2.38,5.01-5.32,6.36-8.96.24-.65.02-1.38-.55-1.78-2.49-1.76-5.17-3-8.02-3.73-22.24-5.67-54.83-13.08-106.66-25-8.51-1.96-16.56-3.93-24.13-5.91-.56-.15-1.13-.23-1.71-.24-5.7-.16-10.4-2.19-15.67-4.8-23.59-11.69-31.54-39.69-15.77-61.4,6.82-9.38,19.92-16.29,31.27-15.3.61.05,1.22,0,1.82-.16,5.17-1.41,9.08-2.84,11.73-4.27,6.83-3.69,13.07-8.86,18.73-15.49.7-.83.97-1.95.73-3.01-4.99-21.5,5.67-42.92,27.49-48.72,3.92-1.05,8.59-1.54,14.02-1.49,7.42.07,39.7.09,96.85.06,7.17,0,12.12.31,14.83.93,10.44,2.39,20.4,9.47,25.65,18.87,9.55,17.12,7.17,36.62-7.08,50.38-8.67,8.38-18.07,10.61-30,10.65-22.49.07-44.49.1-66,.07-18.21-.03-31.46.19-39.76.64-1.56.09-3.63.98-6.21,2.69-3.62,2.39-7.61,5.14-11.98,8.25-5,3.56-10.71,7.4-11.78,12.44ZM111.59,73.48c2.33.64,4.65.97,6.97.98,57.05.47,90.55.66,100.5.58,8.84-.07,16.13-3.14,21.87-9.23,6.63-7.02,10.75-15.81,9.59-25.61-1.46-12.24-7.81-21.04-19.05-26.41-4.21-2.01-8.81-3-13.79-2.97-30.53.19-61.1.24-91.69.17-4.71-.19-9.43-.22-14.18-.08-17.91.55-31.47,17.44-28.79,35.05,1.15,7.59,4.56,13.94,10.22,19.05,5.63,5.07,11.74,7.9,18.35,8.47ZM40.65,84.18c-16.89.62-30.07,15.13-29.43,32.42.63,17.29,14.84,30.8,31.73,30.18h0c16.89-.62,30.07-15.13,29.43-32.42-.63-17.29-14.84-30.8-31.73-30.18h0ZM250.75,181.98c0-17.05-13.82-30.87-30.87-30.87s-30.87,13.82-30.87,30.87,13.82,30.87,30.87,30.87,30.87-13.82,30.87-30.87ZM55.65,286.09c4.23.58,8.12.85,11.66.81,22.75-.25,45.52-.18,68.33.21,4.59.24,8.06.17,10.4-.2,10.4-1.67,18.27-6.54,23.62-14.61,6.42-9.69,6.66-22.02,1.22-32.15-6.33-11.77-16.26-17.57-29.8-17.39-4.87.06-9.29.22-13.26.47-19.86-.28-39.28-.32-58.26-.13-4.45.04-8.69.23-12.73.58-6.76-.99-11.65-1.39-14.66-1.21-11.96.71-20.81,6.02-26.55,15.95-6.93,11.99-6.18,23.61,2.25,34.86,7.44,9.93,19.33,14.98,32.06,13.52,2.09-.24,3.99-.48,5.72-.71Z"/>
  <g>
    <ellipse class="st7" cx="41.79" cy="115.48" rx="30.6" ry="31.32" transform="translate(-4.2 1.61) rotate(-2.1)"/>
    <circle class="st7" cx="219.88" cy="181.98" r="30.87"/>
  </g>
  <g>
    <path class="st9" d="M125.99,10.99c1.23.95,3.39,2.12,6.48,3.51,4.86,2.18,8.06,7.6,10.47,13.05,6.24,14.13,2.14,29.63-9.24,39.81-3.55,3.18-7.61,4.79-12.18,4.82-3.78.03-7.09.46-9.93,1.3-6.61-.57-12.72-3.4-18.35-8.47-5.66-5.11-9.07-11.46-10.22-19.05-2.68-17.61,10.88-34.5,28.79-35.05,4.75-.14,9.47-.11,14.18.08Z"/>
    <path class="st9" d="M135.64,287.11c-15.43-5.94-25.97-16.43-25.21-34.01.37-8.66,3.49-15.73,9.34-21.21,3.77-3.54,6.46-6.43,8.05-8.66,3.97-.25,8.39-.41,13.26-.47,13.54-.18,23.47,5.62,29.8,17.39,5.44,10.13,5.2,22.46-1.22,32.15-5.35,8.07-13.22,12.94-23.62,14.61-2.34.37-5.81.44-10.4.2Z"/>
  </g>
  <path class="st10" d="M127.82,223.23c-1.59,2.23-4.28,5.12-8.05,8.66-5.85,5.48-8.97,12.55-9.34,21.21-.76,17.58,9.78,28.07,25.21,34.01-22.81-.39-45.58-.46-68.33-.21-3.54.04-7.43-.23-11.66-.81,8.02-5.39,13.63-12.21,16.84-20.47.81-2.08,1.29-4.47,1.46-7.16.61-9.74-2.16-18.45-8.31-26.12-2.89-3.61-5.82-6.49-8.81-8.66,4.04-.35,8.28-.54,12.73-.58,18.98-.19,38.4-.15,58.26.13Z"/>
</svg>