<?xml version="1.0" encoding="UTF-8" standalone="no"?>
<!DOCTYPE svg PUBLIC "-//W3C//DTD SVG 1.1//EN" "http://www.w3.org/Graphics/SVG/1.1/DTD/svg11.dtd">
<svg xmlns="http://www.w3.org/2000/svg" version="1.1" viewBox="0.00 0.00 1408.00 704.00">
<g stroke-width="2.00" fill="none" stroke-linecap="butt">
<path stroke="#1f5c38" vector-effect="non-scaling-stroke" d="
  M 685.03 276.29
  Q 688.52 277.25 692.00 277.27
  Q 777.58 277.97 792.50 277.85
  Q 805.76 277.75 814.37 268.62
  C 821.00 261.60 825.12 252.81 823.96 243.01
  Q 821.77 224.65 804.91 216.60
  Q 798.59 213.59 791.12 213.63
  Q 745.32 213.91 699.43 213.80"
/>
<path stroke="#1d4e3d" vector-effect="non-scaling-stroke" d="
  M 699.43 213.80
  Q 692.37 213.51 685.25 213.72
  C 667.34 214.27 653.78 231.16 656.46 248.77
  Q 658.19 260.16 666.68 267.82
  Q 675.12 275.43 685.03 276.29"
/>
<path stroke="#3ca975" vector-effect="non-scaling-stroke" d="
  M 699.43 213.80
  Q 701.27 215.23 705.91 217.31
  C 710.77 219.49 713.97 224.91 716.38 230.36
  C 722.62 244.49 718.52 259.99 707.14 270.17
  Q 701.82 274.94 694.96 274.99
  Q 689.29 275.03 685.03 276.29"
/>
<path stroke="#7d3f26" vector-effect="non-scaling-stroke" d="
  M 614.0823 286.9910
  A 31.32 30.60 -92.1 0 0 584.6506 319.4113
  A 31.32 30.60 -92.1 0 0 616.3777 349.5890
  A 31.32 30.60 -92.1 0 0 645.8094 317.1687
  A 31.32 30.60 -92.1 0 0 614.0823 286.9910"
/>
<path stroke="#7d3f26" vector-effect="non-scaling-stroke" d="
  M 824.19 384.79
  A 30.87 30.87 0.0 0 0 793.32 353.92
  A 30.87 30.87 0.0 0 0 762.45 384.79
  A 30.87 30.87 0.0 0 0 793.32 415.66
  A 30.87 30.87 0.0 0 0 824.19 384.79"
/>
<path stroke="#164335" vector-effect="non-scaling-stroke" d="
  M 629.09 488.90
  Q 635.44 489.77 640.75 489.71
  Q 674.87 489.33 709.08 489.92"
/>
<path stroke="#1d4e3d" vector-effect="non-scaling-stroke" d="
  M 709.08 489.92
  Q 715.97 490.28 719.48 489.72
  Q 735.08 487.22 743.10 475.11
  C 749.52 465.42 749.76 453.09 744.32 442.96
  Q 734.83 425.30 714.52 425.57
  Q 707.21 425.66 701.26 426.04"
/>
<path stroke="#164335" vector-effect="non-scaling-stroke" d="
  M 701.26 426.04
  Q 671.47 425.62 643.00 425.91
  Q 636.33 425.97 630.27 426.49"
/>
<path stroke="#1f5c38" vector-effect="non-scaling-stroke" d="
  M 630.27 426.49
  Q 620.13 425.01 615.61 425.28
  Q 597.67 426.34 589.06 441.23
  Q 578.66 459.22 591.31 476.09
  C 598.75 486.02 610.64 491.07 623.37 489.61
  Q 626.50 489.25 629.09 488.90"
/>
<path stroke="#359e6c" vector-effect="non-scaling-stroke" d="
  M 630.27 426.49
  Q 634.75 429.74 639.08 435.15
  Q 648.30 446.66 647.39 461.27
  Q 647.14 465.31 645.93 468.43
  Q 641.12 480.82 629.09 488.90"
/>
<path stroke="#339072" vector-effect="non-scaling-stroke" d="
  M 709.08 489.92
  C 693.65 483.98 683.11 473.49 683.87 455.91
  Q 684.43 442.92 693.21 434.70
  Q 698.87 429.39 701.26 426.04"
/>
</g>
<g fill="#3db76f">
<path d="
  M 685.03 276.29
  Q 689.29 275.03 694.96 274.99
  Q 701.82 274.94 707.14 270.17
  C 718.52 259.99 722.62 244.49 716.38 230.36
  C 713.97 224.91 710.77 219.49 705.91 217.31
  Q 701.27 215.23 699.43 213.80
  Q 745.32 213.91 791.12 213.63
  Q 798.59 213.59 804.91 216.60
  Q 821.77 224.65 823.96 243.01
  C 825.12 252.81 821.00 261.60 814.37 268.62
  Q 805.76 277.75 792.50 277.85
  Q 777.58 277.97 692.00 277.27
  Q 688.52 277.25 685.03 276.29
  Z"
/>
<path d="
  M 630.27 426.49
  Q 634.75 429.74 639.08 435.15
  Q 648.30 446.66 647.39 461.27
  Q 647.14 465.31 645.93 468.43
  Q 641.12 480.82 629.09 488.90
  Q 626.50 489.25 623.37 489.61
  C 610.64 491.07 598.75 486.02 591.31 476.09
  Q 578.66 459.22 589.06 441.23
  Q 597.67 426.34 615.61 425.28
  Q 620.13 425.01 630.27 426.49
  Z"
/>
</g>
<path fill="#000000" d="
  M 654.27 310.24
  A 2.82 2.81 -69.4 0 0 655.64 313.28
  Q 658.45 314.86 661.70 315.54
  Q 692.38 321.96 701.18 323.90
  Q 723.40 328.79 785.42 342.62
  Q 789.67 343.57 797.13 344.83
  C 815.32 347.91 828.60 359.45 832.00 377.33
  C 836.05 398.59 823.26 417.92 802.91 424.38
  Q 796.97 426.27 790.03 427.31
  C 786.41 427.86 782.72 429.25 779.15 431.36
  Q 769.51 437.08 764.91 439.91
  C 761.96 441.72 758.08 444.41 757.39 447.45
  Q 757.21 448.23 757.36 450.13
  Q 758.96 470.20 746.87 484.12
  Q 734.64 498.19 714.71 498.18
  Q 664.33 498.16 624.12 498.39
  Q 613.11 498.45 608.52 497.40
  C 594.08 494.10 582.97 484.20 578.22 470.32
  C 572.03 452.18 579.20 432.96 595.26 422.77
  Q 604.24 417.08 616.25 417.08
  Q 703.64 417.10 707.45 417.14
  Q 716.70 417.22 717.04 417.23
  C 723.51 417.49 728.10 417.51 733.98 414.97
  Q 742.95 411.08 750.11 405.52
  C 753.18 403.14 755.12 400.20 756.47 396.56
  A 1.53 1.53 0.0 0 0 755.92 394.78
  Q 752.18 392.14 747.90 391.05
  C 725.66 385.38 693.07 377.97 641.24 366.05
  Q 628.47 363.11 617.11 360.14
  A 7.46 7.39 -36.7 0 0 615.40 359.90
  C 609.70 359.74 605.00 357.71 599.73 355.10
  C 576.14 343.41 568.19 315.41 583.96 293.70
  C 590.78 284.32 603.88 277.41 615.23 278.40
  A 5.35 5.22 -49.3 0 0 617.05 278.24
  Q 624.80 276.12 628.78 273.97
  Q 639.02 268.43 647.51 258.48
  A 3.46 3.45 58.7 0 0 648.24 255.47
  C 643.25 233.97 653.91 212.55 675.73 206.75
  Q 681.61 205.18 689.75 205.26
  Q 700.88 205.36 786.60 205.32
  Q 797.36 205.32 801.43 206.25
  C 811.87 208.64 821.83 215.72 827.08 225.12
  C 836.63 242.24 834.25 261.74 820.00 275.50
  C 811.33 283.88 801.93 286.11 790.00 286.15
  Q 756.27 286.26 724.00 286.22
  Q 696.69 286.18 684.24 286.86
  Q 681.90 286.99 678.03 289.55
  Q 672.60 293.14 666.05 297.80
  C 661.05 301.36 655.34 305.20 654.27 310.24
  Z
  M 685.03 276.29
  Q 688.52 277.25 692.00 277.27
  Q 777.58 277.97 792.50 277.85
  Q 805.76 277.75 814.37 268.62
  C 821.00 261.60 825.12 252.81 823.96 243.01
  Q 821.77 224.65 804.91 216.60
  Q 798.59 213.59 791.12 213.63
  Q 745.32 213.91 699.43 213.80
  Q 692.37 213.51 685.25 213.72
  C 667.34 214.27 653.78 231.16 656.46 248.77
  Q 658.19 260.16 666.68 267.82
  Q 675.12 275.43 685.03 276.29
  Z
  M 614.0823 286.9910
  A 31.32 30.60 -92.1 0 0 584.6506 319.4113
  A 31.32 30.60 -92.1 0 0 616.3777 349.5890
  A 31.32 30.60 -92.1 0 0 645.8094 317.1687
  A 31.32 30.60 -92.1 0 0 614.0823 286.9910
  Z
  M 824.19 384.79
  A 30.87 30.87 0.0 0 0 793.32 353.92
  A 30.87 30.87 0.0 0 0 762.45 384.79
  A 30.87 30.87 0.0 0 0 793.32 415.66
  A 30.87 30.87 0.0 0 0 824.19 384.79
  Z
  M 629.09 488.90
  Q 635.44 489.77 640.75 489.71
  Q 674.87 489.33 709.08 489.92
  Q 715.97 490.28 719.48 489.72
  Q 735.08 487.22 743.10 475.11
  C 749.52 465.42 749.76 453.09 744.32 442.96
  Q 734.83 425.30 714.52 425.57
  Q 707.21 425.66 701.26 426.04
  Q 671.47 425.62 643.00 425.91
  Q 636.33 425.97 630.27 426.49
  Q 620.13 425.01 615.61 425.28
  Q 597.67 426.34 589.06 441.23
  Q 578.66 459.22 591.31 476.09
  C 598.75 486.02 610.64 491.07 623.37 489.61
  Q 626.50 489.25 629.09 488.90
  Z"
/>
<g fill="#f97d4c">
<ellipse cx="0.00" cy="0.00" transform="translate(615.23,318.29) rotate(-92.1)" rx="31.32" ry="30.60"/>
<circle cx="793.32" cy="384.79" r="30.87"/>
</g>
<g fill="#3a9b7a">
<path d="
  M 699.43 213.80
  Q 701.27 215.23 705.91 217.31
  C 710.77 219.49 713.97 224.91 716.38 230.36
  C 722.62 244.49 718.52 259.99 707.14 270.17
  Q 701.82 274.94 694.96 274.99
  Q 689.29 275.03 685.03 276.29
  Q 675.12 275.43 666.68 267.82
  Q 658.19 260.16 656.46 248.77
  C 653.78 231.16 667.34 214.27 685.25 213.72
  Q 692.37 213.51 699.43 213.80
  Z"
/>
<path d="
  M 709.08 489.92
  C 693.65 483.98 683.11 473.49 683.87 455.91
  Q 684.43 442.92 693.21 434.70
  Q 698.87 429.39 701.26 426.04
  Q 707.21 425.66 714.52 425.57
  Q 734.83 425.30 744.32 442.96
  C 749.76 453.09 749.52 465.42 743.10 475.11
  Q 735.08 487.22 719.48 489.72
  Q 715.97 490.28 709.08 489.92
  Z"
/>
</g>
<path fill="#2c8569" d="
  M 701.26 426.04
  Q 698.87 429.39 693.21 434.70
  Q 684.43 442.92 683.87 455.91
  C 683.11 473.49 693.65 483.98 709.08 489.92
  Q 674.87 489.33 640.75 489.71
  Q 635.44 489.77 629.09 488.90
  Q 641.12 480.82 645.93 468.43
  Q 647.14 465.31 647.39 461.27
  Q 648.30 446.66 639.08 435.15
  Q 634.75 429.74 630.27 426.49
  Q 636.33 425.97 643.00 425.91
  Q 671.47 425.62 701.26 426.04
  Z"
/>
</svg>
