<?xml version="1.0" standalone="no"?>
<!DOCTYPE svg PUBLIC "-//W3C//DTD SVG 20010904//EN"
 "http://www.w3.org/TR/2001/REC-SVG-20010904/DTD/svg10.dtd">
<svg version="1.0" xmlns="http://www.w3.org/2000/svg"
 width="1075.000000pt" height="1226.000000pt" viewBox="0 0 1075.000000 1226.000000"
 preserveAspectRatio="xMidYMid meet">

<g transform="translate(0.000000,1226.000000) scale(0.100000,-0.100000)"
fill="#000000" stroke="none">
<path d="M4461 12229 c-396 -42 -730 -198 -997 -464 -239 -238 -378 -507 -451
-870 -28 -139 -25 -511 5 -655 36 -171 36 -169 -99 -317 -155 -170 -335 -322
-524 -446 -167 -109 -312 -175 -533 -244 -110 -34 -126 -36 -272 -38 -244 -4
-420 -48 -655 -166 -163 -81 -288 -172 -426 -309 -410 -408 -581 -1027 -439
-1586 127 -496 459 -894 955 -1144 236 -120 395 -173 575 -192 68 -7 240 -44
485 -104 209 -52 1111 -262 2005 -468 2231 -514 3043 -709 3202 -766 113 -41
246 -122 254 -156 15 -60 -101 -260 -209 -361 -167 -156 -586 -401 -816 -478
-181 -60 -16 -57 -2596 -55 -2544 1 -2449 3 -2655 -50 -385 -98 -725 -345
-959 -695 -419 -628 -366 -1449 134 -2043 251 -299 626 -509 1035 -579 125
-22 871 -25 2885 -14 1657 9 1713 10 1812 29 434 86 774 296 1042 642 278 359
390 747 374 1290 l-6 175 45 65 c30 45 72 86 132 131 85 65 712 447 831 507
108 54 235 92 409 123 598 105 948 272 1261 601 430 451 572 1087 375 1691
-160 493 -520 859 -1023 1042 -134 48 -254 77 -517 124 -124 22 -1084 231
-2135 465 -1050 233 -2253 497 -2672 585 -801 169 -885 191 -959 255 -37 32
-39 37 -38 87 2 141 139 292 489 540 490 348 621 429 720 448 109 22 860 31
2580 31 1010 0 1883 4 1990 10 232 12 391 38 545 89 218 73 388 175 555 333
232 219 390 465 478 743 58 183 72 283 71 505 0 171 -4 211 -27 321 -47 225
-151 477 -264 647 -250 371 -671 640 -1113 709 -95 15 -324 17 -2440 19 -1318
1 -2372 -2 -2419 -7z m4770 -365 c418 -67 827 -373 998 -745 83 -183 120 -337
128 -544 4 -118 2 -169 -11 -240 -50 -264 -186 -519 -393 -736 -197 -206 -447
-332 -738 -370 -170 -22 -4430 7 -4545 31 -49 10 -91 30 -65 30 6 0 43 7 83
15 40 9 151 20 245 25 200 11 259 24 382 84 247 121 501 441 609 768 58 173
71 252 71 443 0 241 -41 412 -154 647 -116 242 -248 393 -417 473 -55 25 -132
65 -173 88 l-74 42 1899 5 c1045 3 1937 4 1984 2 47 -2 124 -10 171 -18z
m-7316 -3058 c255 -57 468 -175 652 -362 362 -368 470 -941 270 -1426 -169
-406 -521 -693 -953 -774 -128 -24 -331 -21 -462 6 -504 103 -894 496 -1003
1013 -29 134 -31 379 -6 510 110 554 528 962 1072 1046 85 14 346 5 430 -13z
m7364 -2782 c852 -125 1338 -1059 956 -1836 -150 -304 -425 -544 -748 -652
-137 -45 -238 -60 -407 -60 -184 1 -309 23 -467 85 -179 70 -328 172 -467 320
-130 139 -222 293 -281 474 -124 378 -66 791 158 1125 64 96 241 273 337 337
181 121 347 182 590 217 66 9 233 4 329 -10z m-7154 -2989 c77 -10 152 -22
167 -29 78 -32 298 -257 425 -434 209 -291 309 -648 282 -1007 -11 -147 -29
-224 -84 -354 -116 -272 -322 -530 -579 -723 -98 -73 -96 -73 -385 -100 -263
-24 -552 31 -791 152 -365 184 -670 583 -756 987 -20 96 -22 290 -5 393 30
173 126 406 234 567 192 284 454 464 787 539 194 44 405 46 705 9z"/>
</g>
</svg>
